<?xml version="1.0" encoding="UTF-8" standalone="no"?>
<!-- Created with Inkscape (http://www.inkscape.org/) -->

<svg
   xmlns:dc="http://purl.org/dc/elements/1.1/"
   xmlns:cc="http://creativecommons.org/ns#"
   xmlns:rdf="http://www.w3.org/1999/02/22-rdf-syntax-ns#"
   xmlns:svg="http://www.w3.org/2000/svg"
   xmlns="http://www.w3.org/2000/svg"
   xmlns:sodipodi="http://sodipodi.sourceforge.net/DTD/sodipodi-0.dtd"
   xmlns:inkscape="http://www.inkscape.org/namespaces/inkscape"
   width="512"
   height="512"
   id="svg2"
   version="1.1"
   inkscape:version="0.48.2 r9819"
   sodipodi:docname="New document 1">
  <defs
     id="defs4" />
  <sodipodi:namedview
     id="base"
     pagecolor="#ffffff"
     bordercolor="#666666"
     borderopacity="1.0"
     inkscape:pageopacity="0.0"
     inkscape:pageshadow="2"
     inkscape:zoom="1"
     inkscape:cx="375"
     inkscape:cy="227.37131"
     inkscape:document-units="px"
     inkscape:current-layer="layer1"
     showgrid="false"
     units="px"
     inkscape:window-width="1049"
     inkscape:window-height="845"
     inkscape:window-x="34"
     inkscape:window-y="0"
     inkscape:window-maximized="0" />
  <metadata
     id="metadata7">
    <rdf:RDF>
      <cc:Work
         rdf:about="">
        <dc:format>image/svg+xml</dc:format>
        <dc:type
           rdf:resource="http://purl.org/dc/dcmitype/StillImage" />
        <dc:title></dc:title>
      </cc:Work>
    </rdf:RDF>
  </metadata>
  <g
     inkscape:label="Layer 1"
     inkscape:groupmode="layer"
     id="layer1"
     transform="translate(0,-540.36223)">
    <path
       style="fill:#000000;fill-opacity:1;fill-rule:nonzero;stroke:none"
       id="path2993"
       d="m 415.41956,135.61561 c -7.32353,6.5955 -13.01207,14.92935 -18.75786,22.87932 -11.77455,17.00803 -19.89814,36.08249 -26.38836,55.63945 -1.68567,5.07942 -3.16876,10.22385 -4.75314,15.33577 -5.94194,20.39447 -11.1011,41.02958 -14.64682,61.9849 -2.14982,12.70546 -2.37147,16.06555 -3.81436,28.6399 -1.95044,19.53428 -2.70725,39.3033 -0.0366,58.81343 0.49428,3.61095 1.23216,7.18435 1.84825,10.77652 0,0 -10.76688,5.714 -10.76688,5.714 l 0,0 c -1.68079,-10.18669 -2.17768,-11.83552 -2.97201,-22.23713 -1.22376,-16.02506 -0.25102,-32.07972 1.69619,-48.00912 1.52155,-11.80916 2.06022,-17.00096 4.13905,-28.88211 3.67197,-20.98643 8.78325,-41.67917 14.69565,-62.13941 4.26446,-14.25921 8.38658,-28.59026 14.17832,-42.33024 4.14266,-9.82781 9.3261,-19.17698 15.02226,-28.17872 5.2767,-7.71992 10.60288,-15.46634 16.76027,-22.52007 0,0 13.79605,-5.48649 13.79605,-5.48649 z"
       inkscape:connector-curvature="0"
       transform="translate(0,540.36223)" />
    <path
       style="fill:#000000;fill-opacity:1;fill-rule:nonzero;stroke:none"
       id="path2995"
       d="m 335.18171,393.34543 c -8.15644,-0.31139 -16.31482,-0.24331 -24.46724,-0.65839 -8.89163,-0.73969 -17.65527,-2.88849 -25.97467,-6.1053 -4.49269,-1.73716 -6.93528,-3.08376 -11.21989,-5.22658 -7.86636,-4.51187 -15.36524,-9.90233 -21.47346,-16.66137 -1.03699,-1.14748 -1.96523,-2.38875 -2.94785,-3.58313 -4.75202,-6.06672 -7.47132,-12.5981 -8.67341,-20.15363 -0.2548,-6.84378 3.16378,-11.00825 7.79015,-15.5308 8.12158,-6.64257 17.18936,-12.52184 27.10063,-16.07207 4.22371,-1.29237 8.66505,-1.53438 13.05187,-1.69148 2.59137,-0.0475 5.1654,-0.20022 7.70398,0.36984 1.05535,0.29726 1.9213,1.00977 2.63868,1.82179 0.43167,0.4886 0.69924,1.14998 1.2636,1.50273 -1.4762,-5.30309 0.21354,0.0677 -12.80969,6.87678 -0.23159,0.12108 -0.031,-0.52324 -0.0804,-0.77987 -0.0906,-0.47084 -0.2347,-0.92994 -0.33887,-1.39798 -0.28098,-1.26241 -0.68588,-3.3507 -0.9252,-4.5581 -1.485,-8.54145 -2.53929,-17.13489 -3.45422,-25.75373 -0.98764,-9.68109 -1.50006,-19.41199 -1.23092,-29.14059 0.46035,-6.20973 1.75161,-12.36056 3.93516,-18.19823 1.24174,-3.31974 2.10161,-4.88581 3.6491,-8.04853 3.00126,-6.36985 6.71914,-12.34321 10.76088,-18.0936 0,0 12.73938,-5.53132 12.73938,-5.53132 l 0,0 c -4.05589,5.68589 -7.81781,11.59311 -10.84595,17.90051 -1.59661,3.11717 -2.45958,4.62065 -3.75845,7.89305 -2.26681,5.71107 -3.65553,11.74759 -4.18016,17.86566 -0.41755,9.67352 0.2411,19.36386 1.06926,29.00306 0.93135,8.49647 2.0989,16.95998 3.95383,25.31009 0.48524,1.9413 0.95187,3.84915 1.61757,5.73532 0.11897,0.33711 0.64072,0.79718 0.35498,1.012 -12.1203,9.11198 -9.17332,11.79303 -13.16141,7.69263 -0.92914,-1.20324 -1.63377,-2.47299 -3.31714,-2.66748 -2.41879,-0.42023 -4.89237,-0.1929 -7.33484,-0.21418 -4.25861,0.1425 -8.5494,0.46822 -12.5899,1.93618 -4.6036,1.84891 -13.78402,7.08661 4.85733,-3.47055 0.86156,-0.48792 -1.6865,1.03858 -2.51159,1.58592 -0.86007,0.57055 -1.71227,1.15399 -2.54266,1.76692 -0.84386,0.62288 -1.65204,1.2927 -2.47805,1.93905 -4.44276,4.14398 -8.20951,7.82178 -8.34468,14.30555 0.88513,7.48631 3.44629,13.6037 7.95697,19.68089 0.93986,1.17179 1.82619,2.38859 2.81957,3.51535 5.91351,6.70744 13.24625,12.01908 20.96889,16.44186 4.36593,2.17855 6.47506,3.35509 11.04647,5.13202 8.25868,3.21018 16.95434,5.26 25.81245,5.73877 8.51037,0.23327 17.02361,0.13289 25.53186,-0.17992 0,0 -11.96194,8.69086 -11.96194,8.69086 z"
       inkscape:connector-curvature="0"
       transform="translate(0,540.36223)" />
    <path
       style="fill:#000000;fill-opacity:1;fill-rule:nonzero;stroke:none"
       id="path2997"
       d="m 303.28895,211.35442 c -7.50367,-0.72988 -14.89098,0.43081 -22.28584,1.5648 -2.1793,0.38899 -4.35899,0.77579 -6.5379,1.16695 -4.99522,0.89673 -9.34936,1.73823 -14.38317,2.45293 -7.8104,1.10893 -15.65608,1.72855 -23.51887,2.30561 -15.65836,1.22359 -31.12073,-1.64259 -46.36739,-4.84034 -9.07465,-2.0055 -18.10768,-4.3358 -26.79154,-7.6722 -0.63806,-0.29753 -1.27612,-0.59506 -1.91418,-0.89259 0,0 12.0873,-7.96984 12.0873,-7.96984 l 0,0 c 0.58359,0.29853 1.16718,0.59707 1.75077,0.89561 8.20999,3.67342 16.9323,6.04895 25.66012,8.14037 15.11955,3.30317 30.47872,5.93558 46.0227,4.62871 6.58435,-0.49927 9.164,-0.62426 15.73658,-1.40723 7.50068,-0.89352 14.89843,-2.24812 22.31795,-3.63889 2.23162,-0.4183 4.46403,-0.83232 6.69605,-1.24848 3.25343,-0.53799 7.99122,-1.37951 11.34439,-1.72475 4.04537,-0.41651 8.1153,-0.24588 12.16972,-0.4695 0,0 -11.98669,8.70884 -11.98669,8.70884 z"
       inkscape:connector-curvature="0"
       transform="translate(0,540.36223)" />
    <path
       style="fill:#000000;fill-opacity:1;fill-rule:nonzero;stroke:none"
       id="path2999"
       d="m 170.60074,197.35446 c -0.27009,5.92352 -0.31325,11.85358 -0.54349,17.7787 -0.61968,14.08708 -2.06403,28.11804 -2.95006,42.18904 -0.85129,11.0888 -1.32692,22.20897 -2.43741,33.27723 -0.65043,6.48285 -1.10818,9.61723 -1.94685,16.02967 -1.51681,10.37283 -3.4968,20.73899 -6.86536,30.69025 -2.19128,6.4734 -3.16743,8.21639 -5.97242,14.38796 -4.3047,8.37073 -8.80308,16.72356 -14.42671,24.30274 -2.97896,4.01487 -4.94386,6.06345 -8.24739,9.78098 -5.35886,5.47959 -10.74217,11.00986 -16.67608,15.88171 -3.37068,2.76739 -4.39324,3.31915 -7.95284,5.67763 -10.384521,5.9306 -11.714616,7.5785 -19.705539,10.6232 -4.823985,1.83804 -9.850467,3.10992 -14.818459,4.48667 -3.006196,0.82229 -6.052877,1.48169 -9.129431,1.97704 -1.103964,0.17774 -3.284647,0.53914 -4.483292,0.45851 -0.587656,-0.0395 -1.153781,-0.23749 -1.730672,-0.35624 -0.497592,-0.27028 -1.04267,-0.46726 -1.492778,-0.81085 -3.283005,-2.50608 -4.323995,-7.46063 -5.294665,-11.18583 -1.746426,-7.2601 -2.558531,-14.69205 -3.916415,-22.02455 -1.157044,-5.43274 -1.872306,-10.93869 -2.254916,-16.47596 -0.670958,-5.10344 0.979345,-9.67958 3.067846,-14.2347 3.110369,-5.86737 8.221772,-10.0568 13.645045,-13.6831 7.19557,-3.44515 13.817039,-8.88651 21.503621,-11.57837 2.881736,-1.00918 5.884429,-1.60183 8.874453,-2.17316 3.408286,-0.59726 6.873684,-0.7462 10.327461,-0.77487 1.42048,0.007 0.731772,-0.17104 2.042736,0.61701 0,0 -12.297636,8.17368 -12.297636,8.17368 l 0,0 c -0.977363,-0.19205 -0.430853,-0.12648 -1.64568,-0.13597 -3.297481,0.003 -6.598345,0.15166 -9.848142,0.75923 -4.026392,0.80252 -7.861579,1.84878 -11.587154,3.61757 -1.04706,0.49711 -4.074666,2.20488 -3.093679,1.58753 2.892889,-1.82054 5.891232,-3.46786 8.836849,-5.20179 -5.37997,3.35688 -10.44935,7.3328 -13.737243,12.86811 -2.106487,4.29953 -3.847402,8.65309 -3.288324,13.54199 0.266901,5.5301 0.834023,11.03687 1.888762,16.47779 1.258318,7.29841 2.08351,14.68626 3.932241,21.87094 0.859477,2.98445 2.115422,8.12782 5.036711,9.89648 0.377324,0.22845 0.821569,0.32135 1.232354,0.48203 4.921752,0.49888 9.815305,-1.23061 14.565041,-2.26459 4.901688,-1.35153 9.861062,-2.62691 14.582586,-4.54108 1.297284,-0.52594 4.9636,-2.53598 3.838951,-1.70248 -2.463151,1.82548 -5.266102,3.14105 -7.899154,4.71157 3.479382,-2.19138 4.901272,-2.96037 8.177932,-5.55845 6.06045,-4.80534 11.46956,-10.40033 16.96303,-15.82015 3.20983,-3.52587 5.46757,-5.85726 8.37753,-9.65795 5.75763,-7.52 10.38226,-15.83941 14.77313,-24.20262 2.85382,-6.07211 3.8891,-7.85841 6.09476,-14.24457 3.41192,-9.87872 5.42233,-20.19765 6.9635,-30.50983 0.84795,-5.99066 1.47207,-9.97742 2.08188,-16.02493 1.11371,-11.0446 1.63685,-22.15048 2.39268,-33.22174 0.86846,-13.90059 2.00805,-27.79566 2.14546,-41.72946 0.0804,-5.77017 -0.0166,-11.54133 -0.30425,-17.30553 0,0 13.20148,-6.72649 13.20148,-6.72649 z"
       inkscape:connector-curvature="0"
       transform="translate(0,540.36223)" />
    <path
       style="fill:#000000;fill-opacity:1;fill-rule:nonzero;stroke:none"
       id="path3001"
       d="m 88.426531,340.39241 c 0.321196,-10.24923 -1.577684,-20.47156 -2.87649,-30.61072 -2.101678,-16.34538 -2.703149,-32.81884 -3.082337,-49.27706 -0.260456,-17.78955 -0.395645,-35.58422 0.390135,-53.36105 0.95178,-11.6152 2.334779,-23.26448 5.063745,-34.61491 1.230846,-5.11938 2.070733,-7.36749 3.667747,-12.22217 2.317701,-7.03461 6.440017,-13.08231 11.283819,-18.58888 2.3185,-2.37353 4.80207,-4.60326 7.64153,-6.3326 8.31195,-5.05456 27.24534,-15.58082 2.13467,-1.2885 -0.22222,0.12648 0.42987,-0.27787 0.63342,-0.43259 0.53244,-0.40471 0.90533,-0.77725 1.39811,-1.23637 0.74716,-0.76549 1.53058,-1.4895 2.3395,-2.18835 0,0 13.68561,-5.49907 13.68561,-5.49907 l 0,0 c -0.84131,0.63445 -1.71975,1.23443 -2.3954,2.05659 -4.63956,4.80102 -6.24227,4.1704 -15.14445,9.65255 -3.90276,2.4034 7.91951,-4.61666 11.89031,-6.90592 0.28538,-0.16453 -0.55553,0.35419 -0.83329,0.53129 -0.70251,0.44153 -1.46635,0.78015 -2.16839,1.22243 -2.17091,1.36765 -4.03341,3.23837 -5.97997,4.88414 -5.13592,5.39033 -9.58504,11.40617 -12.27477,18.41387 -1.81055,4.86283 -2.77304,7.13499 -4.168675,12.28676 -3.058375,11.28951 -4.58588,22.95512 -5.520766,34.58984 -0.762708,17.71459 -0.450867,35.44123 -0.193264,53.16622 0.368112,16.38644 0.928018,32.80283 3.179852,49.05908 1.483332,9.99667 3.495563,19.9386 4.476293,29.99672 0,0 -13.146939,6.6987 -13.146939,6.6987 z"
       inkscape:connector-curvature="0"
       transform="translate(0,540.36223)" />
    <path
       style="fill:#000000;fill-opacity:1;fill-rule:nonzero;stroke:none"
       id="path3005"
       d="m 123.60381,123.63658 c 7.5701,0.30689 15.14725,0.29522 22.71976,0.53497 13.6848,0.36972 27.34245,1.33938 41.01271,2.02719 13.00409,0.76237 26.00919,1.52122 39.02104,2.13998 13.17353,0.51857 26.24232,2.27842 39.33607,3.69151 12.73893,1.59737 25.55232,2.34364 38.37737,2.74004 10.35876,0.2569 20.72154,0.23655 31.08262,0.21055 8.17386,-0.0661 16.29465,-1.29369 24.26066,-3.05518 6.21424,-1.09748 12.15917,-3.22652 18.25033,-4.80003 4.43879,-1.17591 8.93196,-2.13666 13.39906,-3.20303 3.36666,-0.6283 6.6127,-1.74118 9.95104,-2.47684 2.91338,-0.62102 5.48313,-1.43706 8.16372,-2.70661 2.29875,-0.84434 4.80181,-0.9529 7.21064,-1.36511 2.4037,-0.36596 4.55854,-1.61966 6.89652,-2.29377 8.2725,-4.0378 -16.82752,10.30823 -8.89044,5.11447 0,0 13.78563,-5.48196 13.78563,-5.48196 l 0,0 c -0.49312,0.42052 -1.01633,0.82382 -1.57915,1.14996 -5.53828,3.20924 -9.46293,6.47785 -14.98051,8.25445 -2.27667,0.79839 -4.50306,1.81524 -6.9302,2.06184 -2.38725,0.40599 -4.8515,0.59149 -7.04575,1.70537 -2.6478,1.11731 -5.46429,1.71173 -8.24164,2.41784 -3.27403,0.83355 -6.53286,1.7316 -9.84819,2.39465 -4.4319,1.02556 -8.88267,1.97818 -13.27766,3.15545 -5.99829,1.58891 -11.92316,3.47068 -18.04621,4.55894 -7.98125,1.604 -16.06474,2.77426 -24.2287,2.67052 -10.29721,-0.0334 -20.59675,-0.0593 -30.8892,-0.41013 -12.77546,-0.51898 -25.53106,-1.40065 -38.22552,-2.9672 -13.10667,-1.42073 -26.20543,-3.04182 -39.3896,-3.55631 -12.97944,-0.64286 -25.95289,-1.41719 -38.92343,-2.21684 -13.71468,-0.75368 -27.42571,-1.71053 -41.16519,-1.86361 -7.93936,-0.0686 -15.88271,-0.015 -23.81723,0.29573 0,0 12.01145,-8.72684 12.01145,-8.72684 z"
       inkscape:connector-curvature="0"
       transform="translate(0,540.36223)" />
    <path
       style="fill:#000000;fill-opacity:1;fill-rule:nonzero;stroke:none"
       id="path3007"
       d="m 397.46537,146.53552 c 0.87201,-2.85285 2.50535,-5.42487 4.0941,-7.93008 1.7934,-2.77961 3.37226,-5.69599 5.49484,-8.24247 2.31869,-2.15485 4.28615,-4.61939 6.28385,-7.06231 1.51192,-1.95042 3.15591,-3.71899 5.1179,-5.21331 1.12504,-0.8612 0.57773,-0.45913 1.63818,-1.21133 0,0 13.74313,-5.37815 13.74313,-5.37815 l 0,0 c -1.12486,0.7068 -0.54675,0.33439 -1.73249,1.1201 -1.88736,1.55192 -3.90307,2.88002 -5.30898,4.95978 -2.03856,2.43185 -3.88554,5.05115 -6.29576,7.14074 -2.31278,2.32364 -3.89327,5.20754 -5.54677,8.02013 -1.58649,2.30422 -3.05795,4.7253 -4.17951,7.29045 0,0 -13.30849,6.50645 -13.30849,6.50645 z"
       inkscape:connector-curvature="0"
       transform="translate(0,540.36223)" />
    <path
       style="fill:#00ffff;stroke:none"
       d="m 62.90767,413.82913 c -2.739443,-2.95071 -4.756628,-10.12869 -7.325998,-26.06893 -3.110316,-19.29624 -3.050983,-25.03091 0.330453,-31.93942 1.545369,-3.1573 4.446732,-7.01707 6.492837,-8.63762 4.645485,-3.67929 12.832824,-6.15447 20.357605,-6.15447 4.511414,0 7.247497,-0.71401 12.318499,-3.21463 7.685004,-3.78965 7.524954,-3.04628 4.58285,-21.28537 -4.23672,-26.26484 -4.557464,-31.82071 -4.560731,-79 -0.0028,-40.55176 0.216543,-47.1844 1.851997,-56 3.858338,-20.79765 9.011688,-33.06258 17.967608,-42.76278 l 5.29701,-5.73722 16.4401,0.002 c 22.18641,0.003 101.79272,4.63463 111.9401,6.51292 8.80205,1.62926 41.28391,3.47263 62.5,3.54692 29.62065,0.10372 36.15214,-1.00889 88.43237,-15.06392 10.308,-2.77121 10.74769,-2.6666 7.3635,1.75188 -3.8155,4.98162 -8.29587,12.00886 -8.29587,13.01166 0,0.4425 -2.97393,4.83965 -6.60873,9.77144 -17.76982,24.11056 -27.02247,45.51731 -39.4351,91.23636 -13.30861,49.01918 -18.50589,84.16456 -17.79413,120.32868 l 0.3966,20.15138 -12.52932,-0.54557 c -17.98487,-0.78312 -29.10672,-4.62633 -45.61336,-15.76194 -8.82532,-5.95367 -15.86078,-13.65363 -19.52926,-21.3738 -3.99382,-8.40484 -4.55633,-13.34274 -2.07065,-18.17699 4.41495,-8.5864 9.77674,-11.32214 22.27896,-11.36736 5.34427,-0.0193 6.93828,0.35544 8.40499,1.97614 2.67102,2.95144 4.46798,2.4611 9.87252,-2.69394 l 4.87252,-4.64758 -1.56933,-6.57924 c -5.07397,-21.27201 -6.76704,-54.42339 -3.34559,-65.50875 2.0371,-6.60012 9.47374,-21.91362 13.63177,-28.07049 1.48577,-2.2 2.98803,-4.7875 3.33837,-5.75 0.35033,-0.9625 1.10109,-1.75 1.66836,-1.75 0.56726,0 1.03138,-0.5147 1.03138,-1.14378 0,-1.62122 -12.34659,-0.45444 -33.89408,3.20306 -25.73364,4.36807 -41.62503,5.53252 -55.38435,4.05832 -14.16735,-1.51792 -31.57072,-5.37683 -43.20551,-9.5801 -4.95883,-1.79146 -10.40186,-3.17218 -12.09562,-3.06826 -1.69376,0.10392 -5.68708,1.68082 -8.87404,3.50421 l -5.79448,3.31526 0.52562,7.10564 c 0.60285,8.14976 -0.5907,36.01844 -2.78832,65.10565 -3.19237,42.25329 -7.18634,61.21209 -17.00664,80.72794 -8.77183,17.43225 -19.0865,30.83376 -33.69054,43.77302 -8.494161,7.52588 -8.972904,7.79093 -19.499995,10.79617 -15.965433,4.55776 -18.397283,4.78992 -20.984375,2.00331 l 0,0 z"
       id="path3009"
       inkscape:connector-curvature="0"
       transform="translate(0,540.36223)" />
  </g>
</svg>
